# AST/ASF file generated using VICON BodyLanguage
# -----------------------------------------------
:version 1.10
:name VICON
:units
  mass 1.0
  length 0.45
  angle deg
:documentation
   .ast/.asf automatically generated from VICON data using
   VICON BodyBuilder and BodyLanguage model FoxedUp or BRILLIANT.MOD
:root
   order TX TY TZ RX RY RZ
   axis XYZ
   position 0 0 0  
   orientation 0 0 0 
:bonedata
  begin
     id 1 
     name lhipjoint
     direction 0.558404 -0.748506 0.357664 
     length 2.4234 
     axis 0 0 0  XYZ
  end
  begin
     id 2 
     name lfemur
     direction 0.34202 -0.939693 0  
     length 7.14567  
     axis 0 0 20  XYZ
    dof rx ry rz
    limits (-160.0 20.0)
           (-70.0 70.0)
           (-60.0 70.0)
  end
  begin
     id 3 
     name ltibia
     direction 0.34202 -0.939693 0   
     length 8.13956   
     axis 0 0 20   XYZ
    dof rx
    limits (-10.0 170.0)
  end
  begin
     id 4 
     name lfoot
     direction 0.0791314 -0.217412 0.972867   
     length 2.00134   
     axis -90 7.62852e-016 20   XYZ
    dof rx rz
    limits (-45.0 90.0)
           (-70.0 20.0)
  end
  begin
     id 5 
     name ltoes
     direction 1.53547e-011 -4.21922e-011 1   
     length 1.00735   
     axis -90 7.62852e-016 20   XYZ
    dof rx
    limits (-90.0 20.0)
  end
  begin
     id 6 
     name rhipjoint
     direction -0.496392 -0.78327 0.374276   
     length 2.31584  
     axis 0 0 0  XYZ 
  end
  begin
     id 7 
     name rfemur
     direction -0.34202 -0.939693 0   
     length 7.47417   
     axis 0 0 -20   XYZ
    dof rx ry rz
    limits (-160.0 20.0)
           (-70.0 70.0)
           (-70.0 60.0)
  end
  begin
     id 8 
     name rtibia
     direction -0.34202 -0.939693 0   
     length 7.69071   
     axis 0 0 -20   XYZ
    dof rx
    limits (-10.0 170.0)
 end
 begin
     id 9 
     name rfoot
     direction -0.103069 -0.28318 0.953512   
     length 2.16135  
     axis -90 -7.62852e-016 -20   XYZ
    dof rx rz
    limits (-45.0 90.0)
           (-20.0 70.0)
  end
  begin
     id 10 
     name rtoes
     direction -1.53581e-011 -4.21904e-011 1   
     length 1.07867   
     axis -90 -7.62852e-016 -20   XYZ
    dof rx
    limits (-90.0 20.0)
  end
  begin
     id 11 
     name lowerback
     direction -0.0258961 0.994776 -0.0987407   
     length 2.19412   
     axis 0 0 0   XYZ
    dof rx ry rz
    limits (-20.0 45.0)
           (-30.0 30.0)
           (-30.0 30.0)
  end
  begin
     id 12 
     name upperback
     direction 0.0402454 0.999185 0.00320666   
     length 2.18445   
     axis 0 0 0   XYZ
    dof rx ry rz
    limits (-20.0 45.0)
           (-30.0 30.0)
           (-30.0 30.0)
  end
  begin
     id 13 
     name thorax
     direction 0.0519376 0.997415 0.0496558   
     length 2.21487   
     axis 0 0 0   XYZ
    dof rx ry rz
    limits (-20.0 45.0)
           (-30.0 30.0)
           (-30.0 30.0)
  end
  begin
     id 14 
     name lowerneck
     direction -0.0921276 0.983211 0.157506   
     length 1.61201   
     axis 0 0 0   XYZ
    dof rx ry rz
    limits (-20.0 45.0)
           (-30.0 30.0)
           (-30.0 30.0)
  end
  begin
     id 15 
     name upperneck
     direction 0.0820814 0.98162 -0.172292   
     length 1.65275   
     axis 0 0 0   XYZ
    dof rx ry rz
    limits (-20.0 45.0)
           (-30.0 30.0)
           (-30.0 30.0)
  end
  begin
     id 16
     name head
     direction 0.0336554 0.996413 -0.0776455  
     length 1.66415  
     axis 0 0 0   XYZ
    dof rx ry rz
    limits (-20.0 45.0)
           (-30.0 30.0)
           (-30.0 30.0)
  end
  begin
     id 17 
     name lclavicle
     direction 0.94696 0.284418 -0.149576  
     length 3.41447  
     axis 0 0 0   XYZ
    dof ry rz
    limits (-20.0 10.0)
           (0.0 20.0)
  end
  begin
     id 18 
     name lhumerus
     direction 1 -0.000130264 -9.81312e-005   
     length 5.19964   
     axis 180 -30 -90   XYZ
    dof rx ry rz
    limits (-60.0 90.0)
           (-90.0 90.0)
           (-90.0 90.0)
  end
  begin
     id 19
     name lradius
     direction 1 -4.48961e-011 1.43854e-026   
     length 3.32189   
     axis 180 -30 -90   XYZ
    dof rx
    limits (-10.0 170.0)
  end
  begin
     id 20
     name lwrist
     direction 1 -4.48958e-011 3.1502e-026   
     length 1.66095   
     axis -1.97692e-014 90 90   XYZ
    dof ry
    limits (-180.0 0.0)
 end
  begin
     id 21 
     name lhand
     direction 1 -4.48927e-011 6.3004e-026   
     length 0.645616   
     axis -4.02019e-014 90 90   XYZ
    dof rx rz
    limits (-90.0 90.0)
           (-45.0 45.0)
  end
  begin
     id 22 
     name lfingers
     direction 1 -4.4904e-011 1.26008e-025   
     length 0.520512   
     axis -8.04039e-014 90 90   XYZ
    dof rx
    limits (0.0 90.0)
  end
  begin
     id 23
     name lthumb
     direction 0.707107 -6.34947e-011 0.707107   
     length 0.747354   
     axis -90 45 2.85299e-015   XYZ
    dof rx rz
    limits (-45.0 45.0)
           (-45.0 45.0)
  end
  begin
     id 24 
     name rclavicle
     direction -0.909391 0.383475 -0.161107   
     length 3.25176  
     axis 0 0 0   XYZ 
    dof ry rz
    limits (-10.0 20.0)
           (-20.0 0.0)
  end
  begin
     id 25 
     name rhumerus
     direction -1 -4.48965e-011 -1.81384e-027  
     length 5.6595   
     axis 180 30 90   XYZ
    dof rx ry rz
    limits (-90.0 60.0)
           (-90.0 90.0)
           (-90.0 90.0)
  end
  begin
     id 26 
     name rradius
     direction -1 -4.48996e-011 -8.09397e-027   
     length 3.37604   
     axis 180 30 90   XYZ
    dof rx
    limits (-10.0 170.0)
  end
  begin
     id 27 
     name rwrist
     direction -1 -4.48927e-011 -1.56669e-026   
     length 1.68802   
     axis 1.21142e-014 -90 -90   XYZ
    dof ry
    limits (-180.0 0.0)
  end
  begin
     id 28
     name rhand
     direction -1 -4.48912e-011 -3.13339e-026   
     length 0.824702   
     axis 1.99937e-014 -90 -90   XYZ
    dof rx rz
    limits (-90.0 90.0)
           (-45.0 45.0)
  end
  begin
     id 29
     name rfingers
     direction -1 -4.49011e-011 -6.26677e-026   
     length 0.664896   
     axis 3.99874e-014 -90 -90   XYZ
    dof rx
    limits (0.0 90.0)
  end
  begin
     id 30
     name rthumb
     direction -0.707107 -6.34931e-011 0.707107   
     length 0.954662   
     axis -90 -45 -2.85299e-015   XYZ
    dof rx rz
    limits (-45.0 45.0)
           (-45.0 45.0)
  end
:hierarchy
  begin
    root lhipjoint rhipjoint lowerback
    lhipjoint lfemur
    lfemur ltibia
    ltibia lfoot
    lfoot ltoes
    rhipjoint rfemur
    rfemur rtibia
    rtibia rfoot
    rfoot rtoes
    lowerback upperback
    upperback thorax
    thorax lowerneck lclavicle rclavicle
    lowerneck upperneck
    upperneck head
    lclavicle lhumerus
    lhumerus lradius
    lradius lwrist
    lwrist lhand lthumb
    lhand lfingers
    rclavicle rhumerus
    rhumerus rradius
    rradius rwrist
    rwrist rhand rthumb
    rhand rfingers
  end

#!OML:ASF F:\VICON\USERDATA\INSTALL\rory3\rory3.ASF
:FULLY-SPECIFIED
:DEGREES
166
root 10.8483 17.7527 -18.1473 8.63533 -44.6637 -6.11617
lowerback 5.27131 -0.192102 -1.79541
upperback -0.338418 -0.249667 4.54953
thorax -3.28469 -0.0661018 5.76914
lowerneck -12.8784 1.26948 -9.33973
upperneck 26.9739 1.23738 9.35911
head 10.594 0.630748 5.1477
rclavicle 8.05575e-014 4.77083e-015
rhumerus -38.701 -20.9091 -67.5505
rradius 31.9818
rwrist -13.7333
rhand -10.8665 17.2741
rfingers 7.12502
rthumb 15.1491 -12.1515
lclavicle 8.05575e-014 4.77083e-015
lhumerus -29.8149 20.8144 78.9364
lradius 26.8262
lwrist -11.6023
lhand -1.41806 31.2113
lfingers 7.12502
lthumb 24.2314 59.7003
rfemur -20.9933 7.32331 19.0448
rtibia 41.003
rfoot -18.332 -6.88953
rtoes 7.11695
lfemur -15.2189 3.58712 -20.7785
ltibia 37.6558
lfoot -24.4612 13.9625
ltoes 6.7843
167
root 10.8531 17.7487 -18.1348 8.55239 -44.6927 -6.0054
lowerback 5.23543 -0.242651 -1.82493
upperback -0.280182 -0.322208 4.4923
thorax -3.19581 -0.105004 5.72957
lowerneck -12.8732 1.20193 -9.31232
upperneck 27.2989 1.11301 9.34205
head 10.7284 0.564601 5.13813
rclavicle 8.69186e-014 1.35174e-014
rhumerus -38.6683 -20.2946 -67.8883
rradius 32.2068
rwrist -14.5957
rhand -11.0053 17.0724
rfingers 7.12502
rthumb 15.0154 -12.3632
lclavicle 8.69186e-014 1.35174e-014
lhumerus -29.6094 20.8622 78.8448
lradius 26.5382
lwrist -11.5593
lhand -1.48586 31.042
lfingers 7.12502
lthumb 24.1664 59.5396
rfemur -21.0336 7.19511 18.9233
rtibia 41.1256
rfoot -18.4706 -6.73473
rtoes 8.88839
lfemur -15.1875 3.29039 -20.933
ltibia 37.6453
lfoot -24.5849 14.1184
ltoes 11.3907
168
root 10.858 17.7463 -18.1265 8.35259 -44.6966 -5.70863
lowerback 5.18252 -0.255485 -1.94387
upperback -0.203934 -0.351074 4.37261
thorax -3.0835 -0.121458 5.67118
lowerneck -12.6361 1.0213 -9.63143
upperneck 27.3591 0.84416 9.54681
head 10.7291 0.424778 5.23677
rclavicle 1.23246e-014 -8.74653e-015
rhumerus -38.6534 -20.188 -67.9936
rradius 32.2729
rwrist -14.7087
rhand -11.2563 17.0088
rfingers 7.12502
rthumb 14.7736 -12.4446
lclavicle 1.23246e-014 -8.74653e-015
lhumerus -29.2799 20.8603 78.7955
lradius 26.2297
lwrist -11.7235
lhand -1.5375 30.9462
lfingers 7.12502
lthumb 24.1169 59.4504
rfemur -21.0961 6.96536 18.6641
rtibia 41.2943
rfoot -18.6201 -6.39212
rtoes 11.512
lfemur -15.1437 3.17292 -21.2082
ltibia 37.5736
lfoot -24.6542 14.108
ltoes 8.42017
169
root 10.8617 17.747 -18.1238 8.25975 -44.7608 -5.55788
lowerback 5.18179 -0.24829 -2.06998
upperback -0.115454 -0.352894 4.29067
thorax -2.99081 -0.12414 5.6556
lowerneck -12.3722 0.86278 -9.78378
upperneck 27.2625 0.62009 9.58272
head 10.666 0.306369 5.24027
rclavicle 9.62615e-014 -2.78299e-014
rhumerus -38.531 -20.6747 -67.9227
rradius 32.104
rwrist -14.1312
rhand -11.1545 17.1908
rfingers 7.12502
rthumb 14.8716 -12.2555
lclavicle 9.62615e-014 -2.78299e-014
lhumerus -29.1756 21.2919 78.6185
lradius 26.3945
lwrist -11.9111
lhand -1.11901 31.4177
lfingers 7.12502
lthumb 24.5181 59.8681
rfemur -21.2134 6.75656 18.5616
rtibia 41.4585
rfoot -18.6243 -6.33506
rtoes 11.7224
lfemur -15.1282 3.25939 -21.3507
ltibia 37.5227
lfoot -24.6684 14.0679
ltoes 11.8534
170
root 10.8664 17.7488 -18.1182 8.25825 -44.8824 -5.53412
lowerback 5.18159 -0.262909 -2.13064
upperback 0.00348792 -0.380852 4.20574
thorax -2.86429 -0.142444 5.60092
lowerneck -12.6135 0.794008 -9.45395
upperneck 27.4297 0.504669 9.39387
head 10.7947 0.265281 5.11215
rclavicle 2.43014e-014 -3.97569e-014
rhumerus -38.3103 -20.9773 -68.0697
rradius 32.0248
rwrist -13.8481
rhand -10.8616 17.3369
rfingers 7.12502
rthumb 15.1538 -12.0883
lclavicle 2.43014e-014 -3.97569e-014
lhumerus -29.1011 21.6344 78.4108
lradius 26.7296
lwrist -11.6629
lhand -0.646551 32.1135
lfingers 7.12502
lthumb 24.9709 60.5018
rfemur -21.3708 6.53529 18.5924
rtibia 41.6096
rfoot -18.4552 -6.59079
rtoes 9.42543
lfemur -15.1319 3.30807 -21.4174
ltibia 37.5125
lfoot -24.6744 14.2001
ltoes 7.7678
